<svg id="Layer_1" data-name="Layer 1" xmlns="http://www.w3.org/2000/svg" xmlns:xlink="http://www.w3.org/1999/xlink" viewBox="0 0 640 640"><defs><style>.cls-1{fill:url(#linear-gradient);}.cls-2{fill:url(#linear-gradient-2);}.cls-3{fill:url(#linear-gradient-3);}.cls-4{opacity:0.65;}.cls-5{fill:#ff6200;}.cls-6{fill:#fff;}</style><linearGradient id="linear-gradient" x1="3175.45" y1="-690.73" x2="3175.45" y2="-1336.45" gradientTransform="translate(-1207.2 3283.55) rotate(-45)" gradientUnits="userSpaceOnUse"><stop offset="0" stop-color="#ff4f0f"/><stop offset="1" stop-color="#ffb515"/></linearGradient><linearGradient id="linear-gradient-2" x1="134.98" y1="57.88" x2="445.11" y2="497.25" gradientTransform="matrix(1, 0, 0, 1, 0, 0)" xlink:href="#linear-gradient"/><linearGradient id="linear-gradient-3" x1="541.29" y1="572.64" x2="98.23" y2="66.82" gradientTransform="matrix(1, 0, 0, 1, 0, 0)" xlink:href="#linear-gradient"/></defs><title>tfuel_token</title><circle class="cls-1" cx="320" cy="320" r="320"/><circle class="cls-2" cx="320" cy="320" r="248.85"/><circle class="cls-3" cx="320" cy="320" r="225.03"/><g class="cls-4"><path class="cls-5" d="M433.9,202.73c3.31-6.11,2.25-8.86,9.62-15.52,6.93-4.2,12.82-12.09,12.82-24.69,0,0,1.32-22.93-28-60.21,1.35,13.49,1.87,19.85-8.27,33.09-11.89,15.53-12.61,22.15-12.61,34C407.43,186.19,423.56,200.82,433.9,202.73Z"/><path class="cls-5" d="M435.57,219.89c-4,23.37-3.1,26.7-17.9,38.38-8.26,6.84-26.25,7.23-36.25,2.4-18.28-8.86-21.95-32.9-14.55-48.59,29.51-87.86-19.63-129.32-60-162.81,1.15,55.43,5.57,74.13-56,134.58C178.56,254.76,174.16,285,174.16,339c0,76.72,79.71,150.07,164.38,163,16.57-35,37.33-40.89,68.75-55.42,45.2-15.58,77.92-55.22,77.92-112.76C485.21,290.8,463.85,253.6,435.57,219.89Zm-18.86,130h-59.5V409.4h-58V349.92h-59.5V292h177Z"/></g><path class="cls-6" d="M424.36,188.42c3.31-6.11,2.25-8.86,9.62-15.52,6.93-4.2,12.82-12.09,12.82-24.69,0,0,1.32-22.93-28-60.21,1.35,13.49,1.87,19.85-8.27,33.09-11.89,15.53-12.61,22.15-12.61,34C397.89,171.88,414,186.51,424.36,188.42Z"/><path class="cls-6" d="M426,205.58c-4,23.37-3.1,26.7-17.9,38.38-8.26,6.84-26.25,7.23-36.25,2.4-18.28-8.86-21.95-32.9-14.55-48.59,29.51-87.86-19.63-129.32-60-162.81,1.15,55.43,5.57,74.13-56,134.58C169,240.45,164.62,270.67,164.62,324.73c0,76.72,79.71,150.07,164.38,163,16.57-35,37.33-40.89,68.75-55.42C443,416.68,475.67,377,475.67,319.5,475.67,276.49,454.31,239.29,426,205.58Zm-18.86,130h-59.5v59.48h-58V335.61h-59.5v-58h177Z"/></svg>