<svg id="Layer_1" data-name="Layer 1" xmlns="http://www.w3.org/2000/svg" xmlns:xlink="http://www.w3.org/1999/xlink" viewBox="0 0 400 400"><defs><style>.cls-1{fill:url(#New_Gradient_Swatch_4);}.cls-2{fill:url(#New_Gradient_Swatch_4-2);}.cls-3{fill:url(#New_Gradient_Swatch_4-3);}.cls-4{fill:#29b3eb;}.cls-5{fill:#fff;}</style><linearGradient id="New_Gradient_Swatch_4" x1="-229.07" y1="2124.94" x2="-229.07" y2="1721.36" gradientTransform="translate(-996.98 -1320.93) rotate(-45)" gradientUnits="userSpaceOnUse"><stop offset="0" stop-color="#29b3eb"/><stop offset="1" stop-color="#21edba"/></linearGradient><linearGradient id="New_Gradient_Swatch_4-2" x1="84.36" y1="36.18" x2="278.2" y2="310.78" gradientTransform="matrix(1, 0, 0, 1, 0, 0)" xlink:href="#New_Gradient_Swatch_4"/><linearGradient id="New_Gradient_Swatch_4-3" x1="338.3" y1="357.9" x2="61.4" y2="41.76" gradientTransform="matrix(1, 0, 0, 1, 0, 0)" xlink:href="#New_Gradient_Swatch_4"/></defs><title>theta_token</title><circle class="cls-1" cx="200" cy="200" r="200"/><circle class="cls-2" cx="200" cy="200" r="155.53"/><circle class="cls-3" cx="200" cy="200" r="140.64"/><polygon class="cls-4" points="248.76 141.94 210.68 141.94 210.68 103.86 173.58 103.86 173.58 141.94 135.5 141.94 135.5 179.03 248.76 179.03 248.76 141.94"/><polygon class="cls-4" points="173.58 280.39 210.68 280.39 210.68 242.32 248.76 242.32 248.76 205.22 135.5 205.22 135.5 242.32 173.58 242.32 173.58 280.39"/><polyline class="cls-5" points="193.22 111.14 180.86 111.14 180.86 149.22 142.78 149.22 142.78 186.31 256.04 186.31 256.04 149.22 217.96 149.22 217.96 111.14 193.22 111.14"/><polygon class="cls-5" points="180.86 287.68 217.96 287.68 217.96 249.6 256.04 249.6 256.04 212.51 142.78 212.51 142.78 249.6 180.86 249.6 180.86 287.68"/></svg>